<?xml version="1.0" encoding="UTF-8"?>
<svg xmlns="http://www.w3.org/2000/svg" xmlns:xlink="http://www.w3.org/1999/xlink" viewBox="0 0 240 240" width="240px" height="240px">
<g id="surface38115496">
<path style=" stroke:none;fill-rule:nonzero;fill:rgb(74.509805%,57.254905%,96.470588%);fill-opacity:1;" d="M 120 37.5 C 68.304688 37.5 26.25 71.0625 26.25 112.324219 C 26.25 138.097656 42.550781 161.644531 69.316406 175.320312 C 61.675781 188.199219 54.386719 198.566406 54.300781 198.691406 C 52.601562 201.105469 52.480469 204.292969 53.988281 206.835938 C 55.351562 209.128906 57.8125 210.511719 60.4375 210.511719 C 60.722656 210.511719 61.011719 210.496094 61.296875 210.460938 C 62.273438 210.347656 84.933594 207.546875 112.566406 186.90625 C 115.085938 187.066406 117.578125 187.148438 120 187.148438 C 171.695312 187.148438 213.75 153.585938 213.75 112.324219 C 213.75 71.0625 171.695312 37.5 120 37.5 Z M 120 52.5 C 163.421875 52.5 198.75 79.335938 198.75 112.324219 C 198.75 145.3125 163.421875 172.148438 120 172.148438 C 117.082031 172.148438 114.035156 172.019531 110.941406 171.746094 C 109.066406 171.574219 107.179688 172.128906 105.6875 173.292969 C 95.382812 181.28125 85.804688 186.460938 78.074219 189.792969 C 80.757812 185.472656 83.652344 180.628906 86.460938 175.589844 C 87.511719 173.71875 87.707031 171.484375 86.996094 169.460938 C 86.289062 167.433594 84.746094 165.8125 82.761719 165 C 57.15625 154.488281 41.25 134.300781 41.25 112.324219 C 41.25 79.335938 76.578125 52.5 120 52.5 Z M 120 75 C 113.785156 75 108.75 80.035156 108.75 86.25 C 108.75 92.464844 113.785156 97.5 120 97.5 C 126.214844 97.5 131.25 92.464844 131.25 86.25 C 131.25 80.035156 126.214844 75 120 75 Z M 120 108.75 C 115.855469 108.75 112.5 112.109375 112.5 116.25 L 112.5 146.25 C 112.5 150.390625 115.855469 153.75 120 153.75 C 124.144531 153.75 127.5 150.390625 127.5 146.25 L 127.5 116.25 C 127.5 112.109375 124.144531 108.75 120 108.75 Z M 120 108.75 "/>
</g>
</svg>
