<svg xmlns="http://www.w3.org/2000/svg"  viewBox="0 0 64 64" width="240px" height="240px"><path d="M 44 8 C 40.399 8 36.672438 9.7899219 34.273438 12.669922 C 32.044565 15.346982 31.108586 18.876264 31.685547 22.78125 C 30.335437 24.455104 29.285977 26.356062 28.660156 28.398438 C 28.371397 28.056086 28.077424 27.725228 27.773438 27.412109 C 28.283939 24.971911 28.22226 18.720427 22.347656 15.314453 C 17.300656 12.388453 11.709594 13.492266 9.1835938 14.947266 C 7.3795937 15.987266 7 17.182 7 18 C 7 25.289 10.127953 29.165766 12.751953 31.134766 C 16.388953 33.862766 20.261 34 21 34 C 22.104 34 23 33.104 23 32 C 23 30.896 22.104 30 21 30 C 20.598 30 11.277859 29.867719 11.005859 18.511719 C 12.122859 17.744719 16.362797 16.467437 20.341797 18.773438 C 22.990189 20.309346 23.743237 22.620324 23.916016 24.359375 C 22.25625 23.353061 20.501185 22.602748 18.724609 22.048828 C 18.057609 21.840828 17.329984 22.219719 17.083984 22.886719 C 16.824984 23.590719 17.244672 24.380859 17.888672 24.630859 C 25.604765 27.631093 27.656054 33.74901 28.099609 34.990234 C 28.226356 36.654524 28.455655 37.976054 28.695312 39 L 15 39 C 13.896 39 13 39.896 13 41 C 13 42.104 13.896 43 15 43 L 15.138672 43 L 16.609375 51.822266 C 17.013375 54.243266 19.087016 56 21.541016 56 L 42.458984 56 C 44.912984 56 46.987625 54.242312 47.390625 51.820312 L 48.861328 43 L 49 43 C 50.104 43 51 42.104 51 41 C 51 39.896 50.104 39 49 39 L 33.337891 39 C 33.057106 38.273002 32 35.375391 32 32.677734 C 32 23.890734 38.177422 19.684391 44.857422 18.400391 C 45.555422 18.265391 45.976047 17.709078 45.998047 17.080078 C 46.022047 16.417078 45.504797 16 44.841797 16 C 41.629002 16 38.353364 17.191101 35.548828 19.164062 C 35.838962 17.424115 36.607621 16.118897 37.347656 15.230469 C 39.005656 13.238469 41.556 12 44 12 C 49.108 12 52.515469 15.8545 52.980469 17.0625 C 52.685469 18.3335 49.85 24 45 24 C 42.925 24 41.354641 23.268141 41.306641 23.244141 C 40.315641 22.760141 39.125719 23.166344 38.636719 24.152344 C 38.145719 25.142344 38.550063 26.341031 39.539062 26.832031 C 39.780062 26.952031 41.98 28 45 28 C 52.612 28 57 19.652 57 17 C 57 13.998 51.38 8 44 8 z M 19.193359 43 L 44.806641 43 L 43.445312 51.164062 C 43.364313 51.648062 42.948984 52 42.458984 52 L 21.541016 52 C 21.051016 52 20.636687 51.648062 20.554688 51.164062 L 19.193359 43 z"/></svg>