<svg xmlns="http://www.w3.org/2000/svg"  viewBox="0 0 64 64" width="240px" height="240px"><path d="M 32 10 C 19.85 10 10 19.85 10 32 C 10 44.15 19.85 54 32 54 C 44.15 54 54 44.15 54 32 C 54 19.85 44.15 10 32 10 z M 32 14 C 41.941 14 50 22.059 50 32 C 50 41.941 41.941 50 32 50 C 22.059 50 14 41.941 14 32 C 14 22.059 22.059 14 32 14 z M 32.259766 20.830078 C 28.670766 20.830078 25.148438 22.710969 25.148438 25.542969 C 25.148437 26.069969 25.478547 27.177734 26.810547 27.177734 C 27.535547 27.177734 28.011922 26.884516 28.419922 26.478516 C 29.331922 25.569516 29.897047 24.099609 32.123047 24.099609 C 33.013047 24.099609 35.064453 24.5505 35.064453 26.6875 C 35.064453 29.9195 29.615234 29.791484 29.615234 34.396484 C 29.615234 35.837484 30.245781 36.46875 31.550781 36.46875 C 33.616781 36.46875 33.511719 34.776844 33.511719 34.589844 C 33.511719 31.273844 39.314453 31.610688 39.314453 26.304688 C 39.314453 23.640688 36.872766 20.830078 32.259766 20.830078 z M 31.496094 38.210938 C 29.961094 38.210937 28.988281 39.508375 28.988281 40.609375 C 28.988281 41.710375 29.928094 43.007812 31.496094 43.007812 C 33.064094 43.007813 34.003906 41.780375 34.003906 40.609375 C 34.003906 39.438375 33.031094 38.210938 31.496094 38.210938 z"/></svg>