<svg xmlns="http://www.w3.org/2000/svg"  viewBox="0 0 64 64" width="240px" height="240px"><path d="M 11 8 C 9.343 8 8 9.343 8 11 C 8 12.657 9.343 14 11 14 C 12.657 14 14 12.657 14 11 C 14 9.343 12.657 8 11 8 z M 40 9 C 38.895 9 38 9.895 38 11 C 38 12.105 38.895 13 40 13 C 41.105 13 42 12.105 42 11 C 42 9.895 41.105 9 40 9 z M 21 13 C 19.785 13 18.823344 14.082937 19.027344 15.335938 C 19.187344 16.318937 20.111422 17 21.107422 17 L 22.667969 17 C 25.059969 17 27.703125 18.209031 27.703125 21.332031 C 27.703125 25.808031 27 31 27 31 C 27 31 31 25.456578 31 19.517578 C 31 15.848578 28.082422 13 24.482422 13 L 21 13 z M 51.013672 13 C 48.244672 13 46 15.244672 46 18.013672 L 46 19.482422 C 46 19.768422 45.768422 20 45.482422 20 L 44.304688 20 C 41.930688 20 40 21.930688 40 24.304688 L 39.962891 25.742188 C 39.958891 25.885187 39.840266 26 39.697266 26 L 39.191406 26 C 37.898406 26 36.658141 26.513734 35.744141 27.427734 L 31.658203 31.513672 C 30.985203 32.185672 30.787828 33.252688 31.298828 34.054688 C 31.700828 34.685688 32.35 35 33 35 C 33.512 35 34.023063 34.805062 34.414062 34.414062 L 38.570312 30.257812 C 38.734312 30.092812 38.958406 30 39.191406 30 L 39.955078 30 C 42.189078 30 44 28.189078 44 25.955078 L 44 24.304688 C 44 24.136688 44.136688 24 44.304688 24 L 45.480469 24 C 47.976469 24 50 21.976469 50 19.480469 L 50 18.013672 C 50 17.454672 50.454672 17 51.013672 17 L 54.914062 17 C 55.789062 17 56.631484 16.485344 56.896484 15.652344 C 57.334484 14.271344 56.316 13 55 13 L 51.013672 13 z M 13 22 C 11.895 22 11 22.895 11 24 C 11 25.105 11.895 26 13 26 C 14.105 26 15 25.105 15 24 C 15 22.895 14.105 22 13 22 z M 53 26 C 51.895 26 51 26.895 51 28 C 51 29.105 51.895 30 53 30 C 54.105 30 55 29.105 55 28 C 55 26.895 54.105 26 53 26 z M 19 29 C 18.48825 29 17.976437 29.195438 17.585938 29.585938 C 16.927725 30.24415 16.831957 31.243234 17.283203 32.009766 L 7.5664062 55.826172 C 7.2624062 56.571172 7.4368594 57.427094 8.0058594 57.996094 C 8.3888594 58.379094 8.8989219 58.582031 9.4199219 58.582031 C 9.6749219 58.582031 9.9307813 58.533594 10.175781 58.433594 L 33.990234 48.716797 C 34.301959 48.900418 34.648992 49 35 49 C 35.512 49 36.023063 48.805062 36.414062 48.414062 C 37.195062 47.633062 37.195062 46.366937 36.414062 45.585938 L 20.414062 29.585938 C 20.023563 29.195437 19.51175 29 19 29 z M 46.482422 35 C 40.543422 35 35 39 35 39 C 35 39 40.191969 38.296875 44.667969 38.296875 C 47.790969 38.296875 49 40.940031 49 43.332031 L 49 44.892578 C 49 45.888578 49.681062 46.812656 50.664062 46.972656 C 51.917062 47.176656 53 46.215 53 45 L 53 41.517578 C 53 37.917578 50.151422 35 46.482422 35 z M 20.322266 35.150391 L 30.849609 45.677734 L 27.238281 47.152344 L 20.287109 35.236328 L 20.322266 35.150391 z M 18.380859 39.908203 L 23.498047 48.677734 L 20.4375 49.925781 L 16.822266 43.726562 L 18.380859 39.908203 z M 14.916016 48.398438 L 16.697266 51.451172 L 13.066406 52.933594 L 14.916016 48.398438 z M 44 50 C 42.343 50 41 51.343 41 53 C 41 54.657 42.343 56 44 56 C 45.657 56 47 54.657 47 53 C 47 51.343 45.657 50 44 50 z"/></svg>