<svg xmlns="http://www.w3.org/2000/svg"  viewBox="0 0 64 64" width="240px" height="240px"><path d="M14 52c-1.104 0-2-.896-2-2V40c0-1.104.896-2 2-2s2 .896 2 2v5.172l8.586-8.586C24.977 36.195 25.488 36 26 36s1.023.195 1.414.586c.781.781.781 2.047 0 2.828L18.828 48H24c1.104 0 2 .896 2 2s-.896 2-2 2H14zM52 50c0 1.104-.896 2-2 2H40c-1.104 0-2-.896-2-2s.896-2 2-2h5.172l-8.586-8.586C36.195 39.023 36 38.512 36 38s.195-1.023.586-1.414c.781-.781 2.047-.781 2.828 0L48 45.172V40c0-1.104.896-2 2-2s2 .896 2 2V50zM50 12c1.104 0 2 .896 2 2v10c0 1.104-.896 2-2 2s-2-.896-2-2v-5.172l-8.586 8.586C39.023 27.805 38.512 28 38 28s-1.023-.195-1.414-.586c-.781-.781-.781-2.047 0-2.828L45.172 16H40c-1.104 0-2-.896-2-2s.896-2 2-2H50zM12 14c0-1.104.896-2 2-2h10c1.104 0 2 .896 2 2s-.896 2-2 2h-5.172l8.586 8.586C27.805 24.977 28 25.488 28 26s-.195 1.023-.586 1.414c-.781.781-2.047.781-2.828 0L16 18.828V24c0 1.104-.896 2-2 2s-2-.896-2-2V14z"/></svg>