<svg xmlns="http://www.w3.org/2000/svg"  viewBox="0 0 64 64" width="240px" height="240px"><path d="M 32 9 C 23.178 9 16 16.178 16 25 C 16 31.049 18.989578 34.352812 21.392578 37.007812 C 23.407578 39.234813 25 40.994 25 44 C 25 45.104 25.896 46 27 46 L 37 46 C 38.104 46 39 45.104 39 44 C 39 40.994 40.592422 39.234813 42.607422 37.007812 C 45.010422 34.352813 48 31.049 48 25 C 48 16.178 40.822 9 32 9 z M 12 10 C 10.896 10 10 10.895 10 12 C 10 13.105 10.896 14 12 14 C 13.104 14 14 13.105 14 12 C 14 10.895 13.104 10 12 10 z M 52 10 C 50.896 10 50 10.895 50 12 C 50 13.105 50.896 14 52 14 C 53.104 14 54 13.105 54 12 C 54 10.895 53.104 10 52 10 z M 32 13 C 38.617 13 44 18.383 44 25 C 44 29.508 41.883578 31.847219 39.642578 34.324219 C 37.805578 36.353219 35.762922 38.61 35.169922 42 L 28.830078 42 C 28.237078 38.611 26.194422 36.353219 24.357422 34.324219 C 22.116422 31.847219 20 29.508 20 25 C 20 18.383 25.383 13 32 13 z M 8 24 C 6.896 24 6 24.895 6 26 C 6 27.105 6.896 28 8 28 C 9.104 28 10 27.105 10 26 C 10 24.895 9.104 24 8 24 z M 56 24 C 54.896 24 54 24.895 54 26 C 54 27.105 54.896 28 56 28 C 57.104 28 58 27.105 58 26 C 58 24.895 57.104 24 56 24 z M 12 38 C 10.896 38 10 38.895 10 40 C 10 41.105 10.896 42 12 42 C 13.104 42 14 41.105 14 40 C 14 38.895 13.104 38 12 38 z M 52 38 C 50.896 38 50 38.895 50 40 C 50 41.105 50.896 42 52 42 C 53.104 42 54 41.105 54 40 C 54 38.895 53.104 38 52 38 z M 28 48 C 26.896 48 26 48.895 26 50 C 26 51.105 26.896 52 28 52 L 28.554688 52 C 29.247618 53.190604 30.523271 54 32 54 C 33.476729 54 34.752382 53.190604 35.445312 52 L 36 52 C 37.104 52 38 51.105 38 50 C 38 48.895 37.104 48 36 48 L 28 48 z"/></svg>