<svg xmlns="http://www.w3.org/2000/svg"  viewBox="0 0 64 64" width="240px" height="240px"><path d="M 32 9 C 19.25 9 9 17.622 9 44 C 12.322 48.56 18 51 22 51 L 23.8125 51 C 26.234185 53.334695 29.13919 55 32 55 C 34.86081 55 37.765815 53.334695 40.1875 51 L 42 51 C 46 51 51.678 48.56 55 44 C 55 17.549 44.75 9 32 9 z M 32 13 C 37.729 13 42.014562 14.964812 45.101562 19.007812 C 48.853562 23.921812 50.833234 31.853703 50.990234 42.595703 C 48.933983 44.855463 45.999859 46.337018 43.574219 46.816406 C 45.070034 44.424433 46 41.917917 46 39.914062 L 46 32 C 40.178 28.447 37 22 37 22 C 35.812 25.976 32.644 32.999719 18 33.386719 L 18 39.914062 C 18 41.917917 18.929966 44.424433 20.425781 46.816406 C 18.000141 46.337018 15.066017 44.855463 13.009766 42.595703 C 13.167766 31.878703 15.147391 23.957203 18.900391 19.033203 C 21.995391 14.974203 26.28 13 32 13 z M 37.4375 29.728516 C 38.6805 31.200516 40.204 32.744469 42 34.105469 L 42 39.914062 C 42 43.485063 36.398 51 32 51 C 27.602 51 22 43.485062 22 39.914062 L 22 37.117188 C 28.941 36.317188 34.1035 33.844516 37.4375 29.728516 z"/></svg>